<svg width="20" height="20" viewBox="0 0 20 20" fill="none" xmlns="http://www.w3.org/2000/svg">
<path fill-rule="evenodd" clip-rule="evenodd" d="M9.02919 10.0055L9.03046 10.3006C9.0406 11.471 9.11115 12.5152 9.23283 13.177C9.23283 13.1889 9.36555 13.8452 9.4501 14.0637C9.58282 14.3795 9.82282 14.6475 10.1237 14.8173C10.3646 14.9385 10.6174 15 10.8819 15C11.0899 14.9904 11.4328 14.8857 11.6776 14.798L11.881 14.72C13.2282 14.1849 15.8037 12.4362 16.79 11.3668L16.8627 11.2921L17.1873 10.9418C17.3918 10.6738 17.5 10.3461 17.5 9.99357C17.5 9.6778 17.4036 9.36203 17.2109 9.10685C17.1532 9.02417 17.0603 8.91811 16.9776 8.82849L16.6617 8.49782C15.5746 7.39643 13.221 5.85153 12.001 5.33964C12.001 5.32862 11.2428 5.01193 10.8819 5H10.8337C10.2801 5 9.76282 5.31577 9.49828 5.82614C9.42601 5.96567 9.35669 6.23898 9.30396 6.47903L9.20919 6.93226C9.10101 7.6611 9.02919 8.77914 9.02919 10.0055ZM3.75271 8.73472C3.0609 8.73472 2.5 9.30108 2.5 9.99963C2.5 10.6982 3.0609 11.2645 3.75271 11.2645L6.8354 10.9919C7.37812 10.9919 7.81812 10.5486 7.81812 9.99963C7.81812 9.45162 7.37812 9.00734 6.8354 9.00734L3.75271 8.73472Z" fill="#424242"/>
</svg>
