<svg width="20" height="20" viewBox="0 0 20 20" fill="none" xmlns="http://www.w3.org/2000/svg">
<path d="M9.0575 13.8589C9.00917 13.8118 8.8025 13.634 8.6325 13.4684C7.56333 12.4975 5.81333 9.9646 5.27917 8.6389C5.19333 8.43757 5.01167 7.92856 5 7.6566C5 7.39601 5.06 7.14759 5.18167 6.91054C5.35167 6.61503 5.61917 6.37798 5.935 6.24809C6.15417 6.16447 6.81 6.03458 6.82167 6.03458C7.53917 5.90469 8.705 5.83325 9.99333 5.83325C11.2208 5.83325 12.3392 5.90469 13.0675 6.01104C13.0792 6.02322 13.8942 6.15311 14.1733 6.29518C14.6833 6.55577 15 7.06478 15 7.60951V7.6566C14.9875 8.01137 14.6708 8.75743 14.6592 8.75743C14.1242 10.0117 12.46 12.4861 11.3542 13.4806C11.3542 13.4806 11.07 13.7607 10.8925 13.8824C10.6375 14.0724 10.3217 14.1666 10.0058 14.1666C9.65333 14.1666 9.325 14.0602 9.0575 13.8589Z" fill="#212121"/>
</svg>
