<svg width="28" height="28" viewBox="0 0 28 28" fill="none" xmlns="http://www.w3.org/2000/svg">
<path fill-rule="evenodd" clip-rule="evenodd" d="M3.5 7.58333C3.5 4.52058 3.53279 3.5 7.58333 3.5C11.6339 3.5 11.6667 4.52058 11.6667 7.58333C11.6667 10.6461 11.6796 11.6667 7.58333 11.6667C3.48708 11.6667 3.5 10.6461 3.5 7.58333Z" stroke="#212121" stroke-width="1.5" stroke-linecap="round" stroke-linejoin="round"/>
<path fill-rule="evenodd" clip-rule="evenodd" d="M16.3333 7.58333C16.3333 4.52058 16.366 3.5 20.4166 3.5C24.4671 3.5 24.4999 4.52058 24.4999 7.58333C24.4999 10.6461 24.5128 11.6667 20.4166 11.6667C16.3203 11.6667 16.3333 10.6461 16.3333 7.58333Z" stroke="#212121" stroke-width="1.5" stroke-linecap="round" stroke-linejoin="round"/>
<path fill-rule="evenodd" clip-rule="evenodd" d="M3.5 20.4163C3.5 17.3536 3.53279 16.333 7.58333 16.333C11.6339 16.333 11.6667 17.3536 11.6667 20.4163C11.6667 23.4791 11.6796 24.4997 7.58333 24.4997C3.48708 24.4997 3.5 23.4791 3.5 20.4163Z" stroke="#212121" stroke-width="1.5" stroke-linecap="round" stroke-linejoin="round"/>
<path fill-rule="evenodd" clip-rule="evenodd" d="M16.3333 20.4163C16.3333 17.3536 16.366 16.333 20.4166 16.333C24.4671 16.333 24.4999 17.3536 24.4999 20.4163C24.4999 23.4791 24.5128 24.4997 20.4166 24.4997C16.3203 24.4997 16.3333 23.4791 16.3333 20.4163Z" stroke="#212121" stroke-width="1.5" stroke-linecap="round" stroke-linejoin="round"/>
</svg>
