<svg width="32" height="33" viewBox="0 0 32 33" fill="none" xmlns="http://www.w3.org/2000/svg">
<path fill-rule="evenodd" clip-rule="evenodd" d="M2.66675 16.3534C2.66675 9.32949 8.28008 3 16.0267 3C23.6001 3 29.3334 9.20931 29.3334 16.3133C29.3334 24.5523 22.6134 29.6667 16.0001 29.6667C13.8134 29.6667 11.3867 29.0791 9.44008 27.9307C8.76008 27.5168 8.18675 27.2096 7.45341 27.45L4.76008 28.2512C4.08008 28.4649 3.46675 27.9307 3.66675 27.2096L4.56008 24.2185C4.70675 23.8045 4.68008 23.3639 4.46675 23.0167C3.32008 20.9069 2.66675 18.5967 2.66675 16.3534ZM14.2667 16.3534C14.2667 17.3015 15.0267 18.0626 15.9734 18.0759C16.9201 18.0759 17.6801 17.3015 17.6801 16.3667C17.6801 15.4186 16.9201 14.6575 15.9734 14.6575C15.0401 14.6441 14.2667 15.4186 14.2667 16.3534ZM20.4134 16.3667C20.4134 17.3015 21.1734 18.0759 22.1201 18.0759C23.0667 18.0759 23.8267 17.3015 23.8267 16.3667C23.8267 15.4186 23.0667 14.6575 22.1201 14.6575C21.1734 14.6575 20.4134 15.4186 20.4134 16.3667ZM9.82675 18.0759C8.89341 18.0759 8.12008 17.3015 8.12008 16.3667C8.12008 15.4186 8.88008 14.6575 9.82675 14.6575C10.7734 14.6575 11.5334 15.4186 11.5334 16.3667C11.5334 17.3015 10.7734 18.0626 9.82675 18.0759Z" fill="url(#paint0_linear_727_25763)"/>
<defs>
<linearGradient id="paint0_linear_727_25763" x1="29.3334" y1="29.6667" x2="-2.39752" y2="20.4666" gradientUnits="userSpaceOnUse">
<stop stop-color="#1AB65C"/>
<stop offset="1" stop-color="#39E180"/>
</linearGradient>
</defs>
</svg>
