<svg width="20" height="20" viewBox="0 0 20 20" fill="none" xmlns="http://www.w3.org/2000/svg">
<path fill-rule="evenodd" clip-rule="evenodd" d="M8.16935 12.7106C8.68975 13.0633 9.32398 13.2766 9.99886 13.2766C11.7877 13.2766 13.2432 11.8081 13.2432 10.0032C13.2432 9.32221 13.0318 8.68228 12.6821 8.15721L11.7958 9.05147C11.9422 9.33041 12.0235 9.65858 12.0235 10.0032C12.0235 11.1271 11.1128 12.046 9.99886 12.046C9.65735 12.046 9.33211 11.964 9.05565 11.8163L8.16935 12.7106ZM15.3573 5.45801C16.5363 6.54097 17.5364 8.00132 18.2845 9.75703C18.3496 9.91291 18.3496 10.0934 18.2845 10.2411C16.5444 14.3268 13.4465 16.7717 9.99886 16.7717H9.99073C8.42142 16.7717 6.91715 16.2548 5.59178 15.3113L4.01433 16.9029C3.89237 17.026 3.73787 17.0834 3.58338 17.0834C3.42889 17.0834 3.26627 17.026 3.15243 16.9029C2.94915 16.6978 2.91663 16.3696 3.07925 16.1317L3.10364 16.0989L15.1296 3.96484L15.1296 3.96483C15.1459 3.94843 15.1621 3.93202 15.1703 3.91561L15.1703 3.91561C15.1865 3.8992 15.2028 3.8828 15.2109 3.86639L15.9753 3.09519C16.2192 2.85727 16.6014 2.85727 16.8372 3.09519C17.0811 3.33311 17.0811 3.72692 16.8372 3.96484L15.3573 5.45801ZM6.7486 10.0064C6.7486 10.2197 6.77299 10.433 6.80551 10.6299L3.79699 13.6654C2.98387 12.7138 2.27646 11.5652 1.71541 10.2443C1.65036 10.0966 1.65036 9.91611 1.71541 9.76023C3.45548 5.67452 6.55345 3.23786 9.99293 3.23786H10.0011C11.1638 3.23786 12.294 3.51681 13.3348 4.04188L10.619 6.78209C10.4239 6.74928 10.2125 6.72466 10.0011 6.72466C8.20407 6.72466 6.7486 8.19322 6.7486 10.0064Z" fill="#9E9E9E"/>
</svg>
