<svg width="25" height="24" viewBox="0 0 25 24" fill="none" xmlns="http://www.w3.org/2000/svg">
<path d="M9.53222 20.7714V17.7047C9.5322 16.9246 10.1681 16.2908 10.956 16.2856H13.8421C14.6337 16.2856 15.2755 16.9209 15.2755 17.7047V17.7047V20.7809C15.2753 21.4432 15.8093 21.9845 16.478 22H18.4021C20.3201 22 21.875 20.4607 21.875 18.5618V18.5618V9.83784C21.8648 9.09083 21.5105 8.38935 20.913 7.93303L14.3327 2.6853C13.1799 1.77157 11.5412 1.77157 10.3884 2.6853L3.83703 7.94256C3.23726 8.39702 2.88239 9.09967 2.875 9.84736V18.5618C2.875 20.4607 4.42988 22 6.34791 22H8.27196C8.95735 22 9.51297 21.4499 9.51297 20.7714V20.7714" stroke="#9E9E9E" stroke-width="1.5" stroke-linecap="round" stroke-linejoin="round"/>
</svg>
