<svg width="20" height="20" viewBox="0 0 20 20" fill="none" xmlns="http://www.w3.org/2000/svg">
<path fill-rule="evenodd" clip-rule="evenodd" d="M2.91675 8.59846C2.91675 4.76523 6.11998 1.66699 9.99462 1.66699C13.8802 1.66699 17.0834 4.76523 17.0834 8.59846C17.0834 10.5301 16.3809 12.3233 15.2247 13.8433C13.9491 15.5199 12.3769 16.9807 10.6072 18.1273C10.2022 18.3923 9.83664 18.4123 9.39212 18.1273C7.61236 16.9807 6.04015 15.5199 4.7755 13.8433C3.6184 12.3233 2.91675 10.5301 2.91675 8.59846ZM7.66194 8.81428C7.66194 10.0984 8.7098 11.1084 9.99462 11.1084C11.2803 11.1084 12.3382 10.0984 12.3382 8.81428C12.3382 7.54015 11.2803 6.48102 9.99462 6.48102C8.7098 6.48102 7.66194 7.54015 7.66194 8.81428Z" fill="#1AB65C"/>
</svg>
