<svg width="20" height="20" viewBox="0 0 20 20" fill="none" xmlns="http://www.w3.org/2000/svg">
<path fill-rule="evenodd" clip-rule="evenodd" d="M14.6022 6.16342V7.4412C16.0375 7.88921 17.0833 9.18853 17.0833 10.7404V14.8545C17.0833 16.7757 15.4905 18.3334 13.5268 18.3334H6.47396C4.50942 18.3334 2.91663 16.7757 2.91663 14.8545V10.7404C2.91663 9.18853 3.96325 7.88921 5.3977 7.4412V6.16342C5.40617 3.67907 7.46385 1.66675 9.98726 1.66675C12.5445 1.66675 14.6022 3.67907 14.6022 6.16342ZM10.0042 3.11595C11.7232 3.11595 13.1204 4.48234 13.1204 6.16342V7.2615H6.87957V6.14686C6.88803 4.47406 8.28523 3.11595 10.0042 3.11595ZM10.7409 13.7125C10.7409 14.1183 10.4106 14.4413 9.99573 14.4413C9.58927 14.4413 9.25903 14.1183 9.25903 13.7125V11.8741C9.25903 11.4766 9.58927 11.1536 9.99573 11.1536C10.4106 11.1536 10.7409 11.4766 10.7409 11.8741V13.7125Z" fill="#9E9E9E"/>
</svg>
