<svg width="28" height="25" viewBox="0 0 28 25" fill="none" xmlns="http://www.w3.org/2000/svg">
<path fill-rule="evenodd" clip-rule="evenodd" d="M20.5859 0.333496C22.3739 0.333496 24.0939 1.04016 25.3592 2.30816C26.6259 3.5735 27.3339 5.28016 27.3339 7.06683V17.6002C27.3339 21.3202 24.3072 24.3335 20.5859 24.3335H7.4139C3.69257 24.3335 0.667236 21.3202 0.667236 17.6002V7.06683C0.667236 3.34683 3.67924 0.333496 7.4139 0.333496H20.5859ZM22.7072 9.0535L22.8139 8.94683C23.1326 8.56016 23.1326 8.00016 22.7992 7.6135C22.6139 7.41483 22.3592 7.2935 22.0939 7.26683C21.8139 7.25216 21.5472 7.34683 21.3459 7.5335L15.3339 12.3335C14.5606 12.9748 13.4526 12.9748 12.6672 12.3335L6.66724 7.5335C6.25257 7.22683 5.67924 7.26683 5.3339 7.62683C4.9739 7.98683 4.9339 8.56016 5.23924 8.96016L5.4139 9.1335L11.4806 13.8668C12.2272 14.4535 13.1326 14.7735 14.0806 14.7735C15.0259 14.7735 15.9472 14.4535 16.6926 13.8668L22.7072 9.0535Z" fill="url(#paint0_linear_877_6329)"/>
<defs>
<linearGradient id="paint0_linear_877_6329" x1="27.3339" y1="24.3335" x2="-3.83016" y2="14.2938" gradientUnits="userSpaceOnUse">
<stop stop-color="#1AB65C"/>
<stop offset="1" stop-color="#39E180"/>
</linearGradient>
</defs>
</svg>
