<svg width="25" height="24" viewBox="0 0 25 24" fill="none" xmlns="http://www.w3.org/2000/svg">
<path d="M9.50978 20.7733V17.7156C9.50978 16.9351 10.1472 16.3023 10.9334 16.3023H13.8076C14.1852 16.3023 14.5473 16.4512 14.8143 16.7163C15.0813 16.9813 15.2313 17.3408 15.2313 17.7156V20.7733C15.2289 21.0978 15.3571 21.4099 15.5874 21.6402C15.8177 21.8705 16.1311 22 16.4579 22H18.4188C19.3346 22.0023 20.2138 21.6428 20.8622 21.0008C21.5106 20.3588 21.875 19.487 21.875 18.5778V9.86686C21.875 9.13246 21.5471 8.43584 20.9796 7.96467L14.309 2.67587C13.1487 1.74856 11.4861 1.7785 10.3604 2.74698L3.84201 7.96467C3.24774 8.42195 2.89255 9.12064 2.875 9.86686V18.5689C2.875 20.4639 4.42238 22 6.33117 22H8.24729C8.92623 22 9.478 21.4562 9.48292 20.7822L9.50978 20.7733Z" fill="#1AB65C"/>
</svg>
