<?xml version="1.0" encoding="utf-8"?>
<!-- Generator: Adobe Illustrator 26.0.3, SVG Export Plug-In . SVG Version: 6.00 Build 0)  -->
<svg version="1.0" id="katman_1" xmlns="http://www.w3.org/2000/svg" xmlns:xlink="http://www.w3.org/1999/xlink" x="0px" y="0px"
	 viewBox="0 0 600 450" style="enable-background:new 0 0 600 450;" xml:space="preserve">
<style type="text/css">
	.st0{fill-rule:evenodd;clip-rule:evenodd;fill:#010202;}
</style>
<path class="st0" d="M394.8,213.5c0,58.9-47.7,106.6-106.6,106.6c-58.9,0-106.6-47.7-106.6-106.6c0-58.9,47.7-106.6,106.6-106.6
	C347.1,106.9,394.8,154.6,394.8,213.5z M412.5,304.3c18.6-25.5,29.6-56.8,29.6-90.8c0-85-68.9-153.9-153.9-153.9
	c-85,0-153.9,68.9-153.9,153.9c0,85,68.9,153.9,153.9,153.9c34,0,65.4-11,90.8-29.6l46.4,46.4c9.2,9.3,24.2,9.3,33.5,0
	c9.3-9.2,9.3-24.2,0-33.5L412.5,304.3z"/>
</svg>
