<svg width="25" height="24" viewBox="0 0 25 24" fill="none" xmlns="http://www.w3.org/2000/svg">
<path fill-rule="evenodd" clip-rule="evenodd" d="M2.125 10.6699C2.125 5.88166 5.96534 2 10.7026 2C12.9776 2 15.1593 2.91344 16.7679 4.53936C18.3766 6.16529 19.2803 8.37052 19.2803 10.6699C19.2803 15.4582 15.4399 19.3399 10.7026 19.3399C5.96534 19.3399 2.125 15.4582 2.125 10.6699ZM19.1384 17.6543L21.693 19.7164H21.7374C22.2542 20.2388 22.2542 21.0858 21.7374 21.6082C21.2205 22.1306 20.3826 22.1306 19.8657 21.6082L17.7457 19.1785C17.5453 18.9766 17.4326 18.7024 17.4326 18.4164C17.4326 18.1304 17.5453 17.8562 17.7457 17.6543C18.1322 17.2704 18.7518 17.2704 19.1384 17.6543Z" fill="#1AB65C"/>
</svg>
