<svg width="25" height="24" viewBox="0 0 25 24" fill="none" xmlns="http://www.w3.org/2000/svg">
<path fill-rule="evenodd" clip-rule="evenodd" d="M8.685 2H17.066C20.155 2 21.875 3.78 21.875 6.83V17.16C21.875 20.26 20.155 22 17.066 22H8.685C5.645 22 3.875 20.26 3.875 17.16V6.83C3.875 3.78 5.645 2 8.685 2ZM8.955 6.66V6.65H11.944C12.375 6.65 12.725 7 12.725 7.429C12.725 7.87 12.375 8.22 11.944 8.22H8.955C8.524 8.22 8.175 7.87 8.175 7.44C8.175 7.01 8.524 6.66 8.955 6.66ZM8.955 12.74H16.795C17.225 12.74 17.575 12.39 17.575 11.96C17.575 11.53 17.225 11.179 16.795 11.179H8.955C8.524 11.179 8.175 11.53 8.175 11.96C8.175 12.39 8.524 12.74 8.955 12.74ZM8.955 17.31H16.795C17.194 17.27 17.495 16.929 17.495 16.53C17.495 16.12 17.194 15.78 16.795 15.74H8.955C8.655 15.71 8.365 15.85 8.205 16.11C8.045 16.36 8.045 16.69 8.205 16.95C8.365 17.2 8.655 17.35 8.955 17.31Z" fill="#1AB65C"/>
</svg>
