<svg width="107" height="220" viewBox="0 0 107 220" fill="none" xmlns="http://www.w3.org/2000/svg">
<path d="M25.9561 75.7616C47.8106 45.234 66.0219 16.0265 52.9093 0C82.6463 19.3758 82.0488 42.2296 46.4045 91.7165L70.0917 115.404C85.5834 91.7214 95.2058 70.399 84.6926 57.5497C114.444 76.9349 113.832 99.8013 78.1362 149.338C74.6211 154.692 71.3661 159.513 68.3988 163.908C50.63 190.227 43.1723 201.273 51.9112 220C24.9575 205.43 23.3196 181.391 57.7394 133.311C57.9362 133.036 58.1327 132.762 58.3288 132.487L34.8365 108.995C18.3573 133.439 11.6864 144.361 20.1278 162.45C-6.82584 147.881 -8.46379 123.841 25.9561 75.7616Z" fill="white"/>
</svg>
