<svg width="28" height="26" viewBox="0 0 28 26" fill="none" xmlns="http://www.w3.org/2000/svg">
<path d="M21.8913 16.093C21.546 16.4277 21.3873 16.9117 21.466 17.3863L22.6513 23.9463C22.7513 24.5023 22.5166 25.065 22.0513 25.3863C21.5953 25.7197 20.9886 25.7597 20.4913 25.493L14.586 22.413C14.3806 22.3037 14.1526 22.245 13.9193 22.2383H13.558C13.4326 22.257 13.31 22.297 13.198 22.3583L7.29131 25.453C6.99931 25.5997 6.66864 25.6517 6.34464 25.5997C5.55531 25.4503 5.02864 24.6983 5.15797 23.905L6.34464 17.345C6.42331 16.8663 6.26464 16.3797 5.91931 16.0397L1.10464 11.373C0.701972 10.9823 0.561972 10.3957 0.745972 9.86634C0.924639 9.33834 1.38064 8.95301 1.93131 8.86634L8.55797 7.90501C9.06197 7.85301 9.50464 7.54634 9.73131 7.09301L12.6513 1.10634C12.7206 0.973008 12.81 0.850341 12.918 0.746341L13.038 0.653008C13.1006 0.583674 13.1726 0.526341 13.2526 0.479674L13.398 0.426341L13.6246 0.333008H14.186C14.6873 0.385008 15.1286 0.685008 15.3593 1.13301L18.318 7.09301C18.5313 7.52901 18.946 7.83167 19.4246 7.90501L26.0513 8.86634C26.6113 8.94634 27.0793 9.33301 27.2646 9.86634C27.4393 10.401 27.2886 10.9877 26.878 11.373L21.8913 16.093Z" fill="#FFD300"/>
</svg>
