<svg width="26" height="26" viewBox="0 0 26 26" fill="none" xmlns="http://www.w3.org/2000/svg">
<path fill-rule="evenodd" clip-rule="evenodd" d="M14.4723 2.56967L16.9089 7.43733C17.1477 7.9152 17.6086 8.24656 18.1431 8.32324L23.5938 9.10781C24.9405 9.30225 25.4764 10.9344 24.5018 11.8696L20.5602 15.6569C20.1729 16.0293 19.9966 16.5647 20.0882 17.0905L21.0184 22.4374C21.2475 23.7601 19.8397 24.7692 18.636 24.1435L13.7643 21.6172C13.2867 21.3694 12.7147 21.3694 12.2357 21.6172L7.36401 24.1435C6.16031 24.7692 4.75253 23.7601 4.98299 22.4374L5.91179 17.0905C6.00343 16.5647 5.82711 16.0293 5.43976 15.6569L1.49824 11.8696C0.52362 10.9344 1.05952 9.30225 2.40622 9.10781L7.85687 8.32324C8.39138 8.24656 8.8537 7.9152 9.0925 7.43733L11.5277 2.56967C12.1302 1.3661 13.8698 1.3661 14.4723 2.56967Z" stroke="#424242" stroke-width="1.5" stroke-linecap="round" stroke-linejoin="round"/>
</svg>
